<svg width="94" height="87" viewBox="0 0 94 87" fill="none" xmlns="http://www.w3.org/2000/svg">
<path d="M32.5284 86.8295V77.3864C24.517 77.3864 22.608 74.1136 22.608 67.0227V55.8409C22.608 50.5227 20.4943 46.0227 11.2898 44.1818V42.8864C20.4943 41.0455 22.608 36.5114 22.608 31.1932V20.0114C22.608 12.9545 24.517 9.68182 32.5284 9.68182V0.204546C18.892 0.204546 10.8807 3.64772 10.8807 19.0227V27.7159C10.8807 34.875 8.22159 37.8068 0.482955 37.8068V49.2614C8.22159 49.2614 10.8807 52.1932 10.8807 59.3523V68.0114C10.8807 83.3864 18.892 86.8295 32.5284 86.8295ZM61.4631 0.238632V9.68182C69.4744 9.68182 71.3835 12.9545 71.3835 20.0455V31.2273C71.3835 36.5455 73.4972 41.0455 82.7017 42.8864V44.1818C73.4972 46.0227 71.3835 50.5568 71.3835 55.875V67.0568C71.3835 74.1136 69.4744 77.3864 61.4631 77.3864V86.8636C75.0994 86.8636 83.1108 83.4205 83.1108 68.0455V59.3523C83.1108 52.1932 85.7699 49.2614 93.5085 49.2614V37.8068C85.7699 37.8068 83.1108 34.875 83.1108 27.7159V19.0568C83.1108 3.68182 75.0994 0.238632 61.4631 0.238632Z" fill="#9E6106" fill-opacity="0.3"/>
</svg>
